<mxfile host="65bd71144e">
    <diagram id="avRXHBJjoQnfQ6Qjcldr" name="Page-1">
        <mxGraphModel dx="906" dy="573" grid="1" gridSize="10" guides="1" tooltips="1" connect="1" arrows="1" fold="1" page="1" pageScale="1" pageWidth="850" pageHeight="1100" background="none" math="0" shadow="0">
            <root>
                <mxCell id="0"/>
                <mxCell id="1" parent="0"/>
                <mxCell id="4" style="edgeStyle=orthogonalEdgeStyle;html=1;exitX=1;exitY=0;exitDx=0;exitDy=0;entryX=0.042;entryY=0.75;entryDx=0;entryDy=0;entryPerimeter=0;curved=1;strokeWidth=3;rounded=1;shape=link;" edge="1" parent="1" source="2" target="3">
                    <mxGeometry relative="1" as="geometry"/>
                </mxCell>
                <mxCell id="11" style="edgeStyle=orthogonalEdgeStyle;curved=1;html=1;endSize=6;strokeWidth=6;rounded=1;" edge="1" parent="1" source="2" target="8">
                    <mxGeometry relative="1" as="geometry"/>
                </mxCell>
                <mxCell id="2" value="User" style="rounded=1;whiteSpace=wrap;html=1;" vertex="1" parent="1">
                    <mxGeometry x="40" y="250" width="180" height="100" as="geometry"/>
                </mxCell>
                <mxCell id="3" value="Email" style="ellipse;whiteSpace=wrap;html=1;strokeWidth=1;rounded=1;" vertex="1" parent="1">
                    <mxGeometry x="490" y="70" width="120" height="80" as="geometry"/>
                </mxCell>
                <mxCell id="8" value="Password" style="triangle;whiteSpace=wrap;html=1;strokeWidth=1;direction=north;rounded=1;" vertex="1" parent="1">
                    <mxGeometry x="280" y="460" width="130" height="100" as="geometry"/>
                </mxCell>
            </root>
        </mxGraphModel>
    </diagram>
</mxfile>